<?xml version="1.0" encoding="UTF-8" standalone="no"?>
<!-- Created with Inkscape (http://www.inkscape.org/) -->

<svg
   width="1280"
   height="720"
   viewBox="0 0 338.66666 190.5"
   version="1.1"
   id="svg5"
   xml:space="preserve"
   inkscape:version="1.2.2 (b0a8486541, 2022-12-01)"
   sodipodi:docname="projeto.svg"
   xmlns:inkscape="http://www.inkscape.org/namespaces/inkscape"
   xmlns:sodipodi="http://sodipodi.sourceforge.net/DTD/sodipodi-0.dtd"
   xmlns="http://www.w3.org/2000/svg"
   xmlns:svg="http://www.w3.org/2000/svg"><sodipodi:namedview
     id="namedview7"
     pagecolor="#505050"
     bordercolor="#eeeeee"
     borderopacity="1"
     inkscape:showpageshadow="0"
     inkscape:pageopacity="0"
     inkscape:pagecheckerboard="0"
     inkscape:deskcolor="#505050"
     inkscape:document-units="mm"
     showgrid="false"
     inkscape:zoom="2.0890625"
     inkscape:cx="197.45699"
     inkscape:cy="166.10322"
     inkscape:window-width="1920"
     inkscape:window-height="1011"
     inkscape:window-x="1366"
     inkscape:window-y="32"
     inkscape:window-maximized="1"
     inkscape:current-layer="layer1" /><defs
     id="defs2" /><g
     inkscape:label="Camada 1"
     inkscape:groupmode="layer"
     id="layer1"><rect
       style="fill:#1a1a1a;stroke-width:6.33793"
       id="rect234"
       width="338.68396"
       height="190.5"
       x="-0.017296238"
       y="0"
       ry="1.6330826" /><rect
       style="fill:#333333;stroke-width:2.50993"
       id="rect500"
       width="55.5625"
       height="182.11029"
       x="-0.017301559"
       y="8.3896961"
       ry="1.561161" /><rect
       style="fill:#333333;stroke-width:2.52264"
       id="rect554"
       width="89.479904"
       height="55.815815"
       x="142.15591"
       y="60.596752"
       ry="0.65745133" /><rect
       style="fill:#4d4d4d;stroke-width:5.75293"
       id="rect612"
       width="13.229167"
       height="13.229167"
       x="10.583333"
       y="75.40625"
       ry="0" /><g
       id="g354"
       transform="translate(0.11457189,18.907665)"><rect
         style="fill:#4d4d4d;stroke-width:5.75293"
         id="rect556"
         width="13.229167"
         height="13.229167"
         x="10.468761"
         y="36.654835"
         ry="0" /><path
         style="fill:#f9f9f9;stroke-width:0.0110521"
         d="m 14.770767,45.908683 c -0.202564,-0.0201 -0.468095,-0.0807 -0.606448,-0.13846 -0.05696,-0.0238 -0.09292,-0.0683 -0.1,-0.12391 -0.0068,-0.0503 0.01301,-0.0902 0.07249,-0.14885 0.107532,-0.10585 0.180407,-0.2415 0.212438,-0.39545 0.01027,-0.0482 0.0266,-0.18549 0.03687,-0.30501 0.01027,-0.11952 0.02842,-0.25922 0.04041,-0.31044 0.101826,-0.43333 0.454728,-0.753921 0.964716,-0.876329 0.07717,-0.01852 0.126584,-0.02233 0.299001,-0.02307 0.241524,-0.001 0.333702,0.01545 0.51347,0.09183 0.29473,0.125224 0.519086,0.365819 0.608319,0.652349 0.03641,0.11699 0.04498,0.33838 0.01781,0.46566 -0.124906,0.58737 -0.643342,0.98056 -1.446543,1.09706 -0.136948,0.0199 -0.47766,0.028 -0.612543,0.0146 z m 2.344124,-1.77185 c -0.05228,-0.14544 -0.199013,-0.347716 -0.348279,-0.480172 -0.157074,-0.13938 -0.38982,-0.269001 -0.574793,-0.320117 -0.03847,-0.01063 -0.06427,-0.02345 -0.06233,-0.03093 0.0046,-0.01693 0.362925,-0.428186 0.373199,-0.428186 0.0046,0 0.256877,0.218221 0.56106,0.484935 l 0.55307,0.484935 -0.134084,0.0974 c -0.119073,0.08652 -0.300849,0.215515 -0.335609,0.238185 -0.008,0.005 -0.01963,-0.0109 -0.03219,-0.046 z m 0.193055,-1.005351 -0.582007,-0.510304 0.110272,-0.117641 c 0.838051,-0.893723 1.549165,-1.485753 2.081037,-1.732538 0.291717,-0.135356 0.514212,-0.175196 0.720326,-0.128983 0.12196,0.02734 0.198751,0.0652 0.284149,0.140063 0.08539,0.07486 0.128581,0.142189 0.159768,0.249101 0.05217,0.178824 0.01427,0.352383 -0.135614,0.620002 -0.17834,0.318577 -0.504577,0.686504 -1.003653,1.131936 -0.317823,0.283668 -0.844296,0.715223 -1.022077,0.837819 l -0.03025,0.02085 z"
         id="path1545" /></g><g
       id="g350"
       transform="translate(0.28578618,19.345894)"><rect
         style="fill:#4d4d4d;stroke-width:5.75293"
         id="rect610"
         width="13.229167"
         height="13.229167"
         x="30.935047"
         y="36.216606"
         ry="0" /><path
         style="fill:#f9f9f9;stroke-width:0.0110425"
         d="m 37.060722,45.467825 c 0.0057,-0.005 0.129529,-0.0979 0.274149,-0.20671 l 0.262939,-0.19787 h 1.332744 1.332732 v 0.2067 0.20671 h -1.606893 c -0.889945,0 -1.601881,-0.004 -1.595671,-0.009 z m -0.614096,-0.21709 c -0.06758,-0.0287 -1.756444,-1.512032 -1.781089,-1.564334 -0.02169,-0.04615 -0.02272,-0.07938 -0.0046,-0.136075 0.01164,-0.03558 0.07386,-0.09541 0.380174,-0.365763 l 0.366201,-0.323223 0.99427,0.870949 0.994258,0.870946 -0.345061,0.3026 c -0.18979,0.16643 -0.364409,0.3144 -0.388039,0.32882 -0.05936,0.0362 -0.15285,0.0431 -0.216593,0.0161 z m 0.365711,-1.882553 -0.991005,-0.86824 1.309582,-1.145482 c 1.140442,-0.997537 1.315849,-1.14703 1.358143,-1.157475 0.06495,-0.01605 0.102852,-0.01511 0.155327,0.0039 0.06084,0.02199 1.753625,1.501674 1.785006,1.56027 0.02534,0.04733 0.02797,0.08577 0.01027,0.144694 -0.01141,0.0358 -0.187792,0.194828 -1.318189,1.185974 -0.717997,0.629548 -1.308189,1.144632 -1.311545,1.144632 -0.0034,0 -0.452056,-0.390707 -0.997112,-0.86824 z"
         id="path1553" /></g><rect
       style="fill:#4d4d4d;stroke-width:5.75293"
       id="rect365"
       width="13.229167"
       height="13.229167"
       x="31.220833"
       y="75.40625"
       ry="0" /><path
       style="fill:#f9f9f9;stroke-width:0.00583489"
       d="m 35.262411,84.767453 c -0.0879,-0.0487 -0.09361,-0.0527 -0.162667,-0.12241 l -0.07078,-0.0721 -0.02625,-0.13909 -0.02625,-0.13909 0.01141,-0.0898 0.01141,-0.0898 0.03196,-0.0363 c 0.01712,-0.02 0.08333,-0.0924 0.145773,-0.1609 l 0.113011,-0.12457 -3.42e-4,-0.10033 c -3.43e-4,-0.0985 2.28e-4,-0.10276 0.02968,-0.2314 l 0.02968,-0.13108 1.239584,-1.12229 1.239469,-1.12228 -0.07876,-0.0685 c -0.04338,-0.0377 -0.142006,-0.12349 -0.219287,-0.19068 l -0.140522,-0.12216 0.31586,-0.25226 c 0.173741,-0.13874 0.318372,-0.252867 0.32134,-0.253617 0,-7.5e-4 0.116093,0.0946 0.251592,0.211947 l 0.246228,0.21331 0.01598,-0.0131 c 0.01141,-0.007 0.251364,-0.21304 0.538801,-0.457407 l 0.522476,-0.4443 0.148399,-0.0818 0.148398,-0.0818 0.182987,-0.009 0.182872,-0.009 0.191092,0.0775 0.191091,0.0775 0.129221,0.12816 0.129335,0.12816 0.05708,0.13786 0.05708,0.13787 -0.05137,0.168007 -0.05137,0.16801 -0.166548,0.20224 -0.166549,0.20224 -0.418027,0.33734 c -0.229789,0.18553 -0.425447,0.3444 -0.434693,0.35303 l -0.01712,0.0157 0.28093,0.24485 0.280929,0.24485 -0.302048,0.2578 c -0.166206,0.14179 -0.303988,0.25847 -0.306157,0.25929 0,8.1e-4 -0.09703,-0.0788 -0.211183,-0.17701 -0.114152,-0.0982 -0.209356,-0.17783 -0.211867,-0.17701 0,8.1e-4 -0.312778,0.27196 -0.689368,0.60253 -0.376589,0.33058 -0.907171,0.79339 -1.178968,1.02847 l -0.494396,0.42742 -0.159927,0.082 -0.159928,0.082 -0.211639,0.0262 c -0.116322,0.0144 -0.215749,0.0263 -0.221,0.0264 0,10e-5 -0.05708,0.0376 -0.114152,0.0834 l -0.105021,0.0832 -0.137326,0.0319 -0.137439,0.0319 -0.139609,-2.9e-4 -0.139609,-2.9e-4 z m 2.028036,-1.9595 0.906258,-0.0412 0.417114,-0.3714 c 0.229333,-0.20427 0.417,-0.37264 0.417,-0.37414 -2.29e-4,-0.004 -0.927034,-0.72582 -0.935253,-0.72825 -0.01141,-0.002 -1.795051,1.55361 -1.795051,1.56045 0,10e-4 0.01826,7.7e-4 0.04224,-9.8e-4 0.02283,-0.002 0.449647,-0.0217 0.948038,-0.0444 z"
       id="path1551" /><path
       style="fill:#f9f9f9;stroke-width:0.012655"
       d="m 15.156118,84.813841 c -0.08927,-0.009 -0.143799,-0.0325 -0.24189,-0.10185 -0.08425,-0.0596 -0.265496,-0.26668 -0.265656,-0.30356 -6.8e-5,-0.0153 -0.0046,-0.0279 -0.01027,-0.0279 -0.02283,0 0.01027,-0.5685 0.0355,-0.60034 0.0057,-0.007 0.01701,-0.0514 0.02591,-0.099 0.0091,-0.0477 0.02078,-0.0922 0.02614,-0.099 0.0057,-0.007 0.01393,-0.0319 0.01918,-0.0557 0.0057,-0.0238 0.02043,-0.0667 0.03379,-0.0953 0.01347,-0.0286 0.02443,-0.0586 0.02443,-0.0667 0,-0.008 0.01233,-0.0405 0.02751,-0.0718 0.05787,-0.12024 0.131161,-0.26901 0.149996,-0.30462 0.06849,-0.12943 0.101025,-0.19226 0.125134,-0.24137 0.01495,-0.0306 0.03059,-0.0585 0.0347,-0.0619 0.01267,-0.0105 0.08961,-0.16823 0.08961,-0.18355 0,-0.008 0.0057,-0.0145 0.0129,-0.0145 0.0068,0 0.0129,-0.006 0.0129,-0.0137 0,-0.008 0.01461,-0.0414 0.0323,-0.0753 0.01781,-0.0339 0.03242,-0.0681 0.03242,-0.0761 4.5e-5,-0.008 0.0091,-0.0303 0.01929,-0.0498 0.01027,-0.0194 0.02614,-0.0709 0.03448,-0.1145 0.008,-0.0436 0.01906,-0.0792 0.02386,-0.0792 0.0046,0 0.0153,0.0902 0.02352,0.20037 0.008,0.1102 0.02009,0.2035 0.02637,0.20733 0.0057,0.004 0.01895,0.0487 0.02831,0.0998 0.0091,0.0511 0.02066,0.0956 0.02534,0.099 0.0046,0.003 0.01587,0.0647 0.02511,0.13616 0.0091,0.0715 0.021,0.13554 0.02614,0.14235 0.0057,0.007 0.01632,0.0539 0.02489,0.10457 0.008,0.0507 0.01998,0.0981 0.02568,0.10522 0.0057,0.007 0.01804,0.0464 0.02751,0.0873 0.0091,0.0408 0.02157,0.0798 0.02683,0.0866 0.0057,0.007 0.01621,0.0374 0.02443,0.0681 0.008,0.0306 0.02283,0.0724 0.03253,0.0928 0.0091,0.0204 0.02158,0.0636 0.0266,0.0959 0.0046,0.0323 0.01336,0.0588 0.01872,0.0588 0.0057,0 0.01712,0.0432 0.02625,0.0959 0.0091,0.0528 0.02157,0.10201 0.02763,0.10946 0.0057,0.007 0.01735,0.0715 0.02511,0.14234 0.008,0.0709 0.01952,0.1385 0.02603,0.15032 0.01507,0.0275 0.01518,0.078 3.4e-5,0.10555 -0.0068,0.0118 -0.01792,0.0641 -0.02557,0.11621 -0.01358,0.0934 -0.01473,0.0957 -0.08847,0.16274 -0.09475,0.0862 -0.20035,0.16959 -0.214801,0.16959 -0.0057,0 -0.02569,0.011 -0.04361,0.0244 -0.01781,0.0134 -0.05228,0.028 -0.07648,0.0323 -0.0242,0.004 -0.04395,0.0122 -0.04395,0.0175 0,0.005 -0.0218,0.0133 -0.04852,0.0179 -0.02671,0.004 -0.0573,0.01 -0.06792,0.0119 -0.01027,0.002 -0.05582,-2.3e-4 -0.100455,-0.005 z m 3.402971,-0.0738 c -0.127075,-0.0293 -0.538858,-0.42111 -1.711171,-1.62828 -0.65002,-0.66935 -1.170602,-1.182 -1.20027,-1.182 -0.01027,0 -0.04178,0.0195 -0.0694,0.0433 -0.02762,0.0238 -0.05559,0.0433 -0.06233,0.0433 -0.0068,0 -0.02763,-0.0127 -0.04657,-0.0283 -0.02477,-0.0204 -0.03607,-0.0436 -0.04053,-0.0836 l -0.0057,-0.0553 0.385859,-0.37975 c 0.564576,-0.55564 1.481107,-1.411235 1.911828,-1.784705 0.193192,-0.16752 0.212998,-0.17686 0.292083,-0.13774 0.07888,0.0391 0.0839,0.0977 0.01438,0.17035 -0.0815,0.0853 -0.08082,0.094 0.01918,0.21039 0.315062,0.3668 0.884569,0.965725 1.996861,2.099995 0.639461,0.65212 0.618103,0.62919 0.626664,0.67281 0.01027,0.0517 -0.01975,0.16166 -0.06952,0.25609 -0.143786,0.27252 -1.042054,1.22668 -1.44927,1.53946 -0.241502,0.18549 -0.457947,0.27467 -0.591802,0.24384 z m 1.109324,-2.61871 c 0,-0.0154 -1.879124,-1.980205 -1.893873,-1.980205 -0.0091,0 -0.41757,0.350915 -0.907936,0.779815 -0.82247,0.71938 -0.888575,0.78013 -0.852971,0.78374 0.02123,0.002 0.839136,0.0976 1.817573,0.21211 1.849855,0.21649 1.837207,0.21509 1.837207,0.20454 z m -4.254093,-0.12349 c 1.71e-4,-0.0204 0.0034,-0.0273 0.0068,-0.0152 0.0034,0.012 0.0034,0.0288 -5.36e-4,0.0371 -0.0034,0.008 -0.0057,-0.002 -0.0057,-0.0219 z"
       id="path1547" /><g
       id="g378"
       transform="translate(-0.4494381,0.44847107)"><rect
         style="fill:#4d4d4d;stroke-width:5.75293"
         id="rect369"
         width="13.229167"
         height="13.229167"
         x="11.032771"
         y="94.801529"
         ry="0" /><g
         id="g2601"
         transform="matrix(0.83922568,0,0,0.68164192,379.6784,6.758561)"><rect
           style="fill:#f9f9f9;fill-opacity:1;stroke-width:6.00001"
           id="rect1607"
           width="7.1977992"
           height="7.6418285"
           x="-434.9859"
           y="135.0459"
           ry="0.62272125" /><path
           id="rect1656"
           style="fill:#1a1a1a;fill-opacity:1;stroke:#666666;stroke-width:0.1;stroke-dasharray:none;stroke-opacity:1"
           d="m -432.19171,135.04602 c -0.0127,0.0689 -0.0196,0.14071 -0.0196,0.21446 v 1.3565 c 0,0.53232 0.34998,0.96067 0.78496,0.96067 0.43498,0 0.78548,-0.42835 0.78548,-0.96067 v -1.3565 c 0,-0.0737 -0.007,-0.14556 -0.0196,-0.21446 z" /><path
           id="rect1727"
           style="fill:#333333;fill-opacity:1;stroke:#666666;stroke-width:0.1;stroke-dasharray:none"
           d="m -433.05574,139.12174 c -0.34498,0 -0.6227,0.27771 -0.6227,0.6227 v 2.94349 h 4.58267 v -2.94349 c 0,-0.34499 -0.27772,-0.6227 -0.6227,-0.6227 z" /></g></g><g
       id="g371"
       transform="translate(-0.15853831,0.44847107)"><rect
         style="fill:#4d4d4d;stroke-width:5.75293"
         id="rect367"
         width="13.229167"
         height="13.229167"
         x="31.379372"
         y="94.801529"
         ry="0" /><path
         id="rect2445"
         style="fill:#f9f9f9;fill-opacity:1;stroke:#666666;stroke-width:0.0815067;stroke-dasharray:none;stroke-opacity:1"
         d="m 37.82108,97.485754 c -0.333406,0 -0.602635,0.19103 -0.602635,0.42818 v 2.906316 c 0,0.004 5.59e-4,0.006 6.62e-4,0.009 h -1.599918 c -0.333406,0 -0.601972,0.19102 -0.601972,0.42817 v 3.08902 c 0,0.23716 0.268566,0.4277 0.601972,0.4277 h 0.03208 v 0.18412 c 0,0.21523 0.243179,0.38821 0.545787,0.38821 0.302596,0 0.546448,-0.17298 0.546448,-0.38821 v -0.18412 h 0.704322 v 0.18412 c 0,0.21523 0.243853,0.38821 0.546449,0.38821 0.302607,0 0.545787,-0.17298 0.545787,-0.38821 v -0.18412 h 0.884226 v 0.18412 c 0,0.21523 0.243191,0.38821 0.545787,0.38821 0.302607,0 0.54646,-0.17298 0.54646,-0.38821 v -0.19744 c 0.261455,-0.0467 0.454156,-0.21359 0.454156,-0.41438 v -3.08902 c 0,-0.23715 -0.268567,-0.42817 -0.601961,-0.42817 h -1.600591 c 1.14e-4,-0.004 6.73e-4,-0.006 6.73e-4,-0.009 v -2.906316 c 0,-0.23715 -0.268555,-0.42818 -0.601972,-0.42818 z" /></g><rect
       style="fill:#1a1a1a;stroke-width:1.34531"
       id="rect320"
       width="338.68396"
       height="8.5830622"
       x="-0.017296238"
       y="0"
       ry="0.073579259" /><rect
       style="fill:#1a1a1a;stroke-width:0.210022"
       id="rect322"
       width="8.2543259"
       height="8.5830622"
       x="0.51470423"
       y="3.5527137e-15"
       ry="0.073579259" /><rect
       style="fill:#333333;stroke-width:0.210022"
       id="rect324"
       width="8.2543259"
       height="8.5830622"
       x="8.7690277"
       y="3.5527137e-15"
       ry="0.073579259" /><rect
       style="fill:#666666;stroke-width:0.210022"
       id="rect326"
       width="8.2543259"
       height="8.5830622"
       x="17.023354"
       y="3.5527137e-15"
       ry="0.073579259" /><rect
       style="fill:#999999;stroke-width:0.210022"
       id="rect328"
       width="8.2543259"
       height="8.5830622"
       x="25.277679"
       y="3.5527137e-15"
       ry="0.073579259" /><rect
       style="fill:#ececec;stroke-width:0.210022"
       id="rect330"
       width="8.2543259"
       height="8.5830622"
       x="33.532005"
       y="3.5527137e-15"
       ry="0.073579259" /><rect
       style="fill:#2b0000;stroke-width:0.210022"
       id="rect332"
       width="8.2543259"
       height="8.5830622"
       x="41.786331"
       y="3.5527137e-15"
       ry="0.073579259" /><rect
       style="fill:#550000;stroke-width:0.210022"
       id="rect334"
       width="8.2543259"
       height="8.5830622"
       x="50.040657"
       y="3.5527137e-15"
       ry="0.073579259" /><rect
       style="fill:#800000;stroke-width:0.210022"
       id="rect336"
       width="8.2543259"
       height="8.5830622"
       x="58.294983"
       y="3.5527137e-15"
       ry="0.073579259" /><rect
       style="fill:#d40000;stroke-width:0.210022"
       id="rect338"
       width="8.2543259"
       height="8.5830622"
       x="66.549309"
       y="3.5527137e-15"
       ry="0.073579259" /><rect
       style="fill:#ff8080;stroke-width:0.210022"
       id="rect340"
       width="8.2543259"
       height="8.5830622"
       x="74.803642"
       y="3.5527137e-15"
       ry="0.073579259" /><rect
       style="fill:#241c1c;stroke-width:0.210022"
       id="rect342"
       width="8.2543259"
       height="8.5830622"
       x="83.057961"
       y="3.5527137e-15"
       ry="0.073579259" /><rect
       style="fill:#483737;stroke-width:0.210022"
       id="rect344"
       width="8.2543259"
       height="8.5830622"
       x="91.312286"
       y="3.5527137e-15"
       ry="0.073579259" /><rect
       style="fill:#6c5353;stroke-width:0.210022"
       id="rect346"
       width="8.2543259"
       height="8.5830622"
       x="99.566612"
       y="3.5527137e-15"
       ry="0.073579259" /><rect
       style="fill:#916f6f;stroke-width:0.210022"
       id="rect348"
       width="8.2543259"
       height="8.5830622"
       x="107.82095"
       y="3.5527137e-15"
       ry="0.073579259" /><rect
       style="fill:#ac9393;stroke-width:0.210022"
       id="rect350"
       width="8.2543259"
       height="8.5830622"
       x="116.07526"
       y="3.5527137e-15"
       ry="0.073579259" /><rect
       style="fill:#2b1100;stroke-width:0.210022"
       id="rect352"
       width="8.2543259"
       height="8.5830622"
       x="124.3296"
       y="3.5527137e-15"
       ry="0.073579259" /><rect
       style="fill:#552200;stroke-width:0.210022"
       id="rect354"
       width="8.2543259"
       height="8.5830622"
       x="132.58391"
       y="3.5527137e-15"
       ry="0.073579259" /><rect
       style="fill:#d45500;stroke-width:0.210022"
       id="rect356"
       width="8.2543259"
       height="8.5830622"
       x="140.83824"
       y="3.5527137e-15"
       ry="0.073579259" /><rect
       style="fill:#ff6600;stroke-width:0.210022"
       id="rect358"
       width="8.2543259"
       height="8.5830622"
       x="149.09256"
       y="3.5527137e-15"
       ry="0.073579259" /><rect
       style="fill:#ffb380;stroke-width:0.210022"
       id="rect360"
       width="8.2543259"
       height="8.5830622"
       x="157.34689"
       y="3.5527137e-15"
       ry="0.073579259" /><rect
       style="fill:#2b0000;stroke-width:0.210022"
       id="rect362"
       width="8.2543259"
       height="8.5830622"
       x="165.60121"
       y="3.5527137e-15"
       ry="0.073579259" /><rect
       style="fill:#550000;stroke-width:0.210022"
       id="rect364"
       width="8.2543259"
       height="8.5830622"
       x="173.85555"
       y="3.5527137e-15"
       ry="0.073579259" /><rect
       style="fill:#800000;stroke-width:0.210022"
       id="rect366"
       width="8.2543259"
       height="8.5830622"
       x="182.10986"
       y="3.5527137e-15"
       ry="0.073579259" /><rect
       style="fill:#d40000;stroke-width:0.210022"
       id="rect368"
       width="8.2543259"
       height="8.5830622"
       x="190.3642"
       y="3.5527137e-15"
       ry="0.073579259" /><rect
       style="fill:#ff8080;stroke-width:0.210022"
       id="rect370"
       width="8.2543259"
       height="8.5830622"
       x="198.61853"
       y="3.5527137e-15"
       ry="0.073579259" /><rect
       style="fill:#241c1c;stroke-width:0.210022"
       id="rect372"
       width="8.2543259"
       height="8.5830622"
       x="206.87285"
       y="3.5527137e-15"
       ry="0.073579259" /><rect
       style="fill:#483737;stroke-width:0.210022"
       id="rect374"
       width="8.2543259"
       height="8.5830622"
       x="215.12717"
       y="3.5527137e-15"
       ry="0.073579259" /><rect
       style="fill:#6c5353;stroke-width:0.210022"
       id="rect376"
       width="8.2543259"
       height="8.5830622"
       x="223.3815"
       y="3.5527137e-15"
       ry="0.073579259" /><rect
       style="fill:#916f6f;stroke-width:0.210022"
       id="rect378"
       width="8.2543259"
       height="8.5830622"
       x="231.63583"
       y="3.5527137e-15"
       ry="0.073579259" /><rect
       style="fill:#ac9393;stroke-width:0.210022"
       id="rect380"
       width="8.2543259"
       height="8.5830622"
       x="239.89014"
       y="3.5527137e-15"
       ry="0.073579259" /><rect
       style="fill:#ececec;stroke-width:0.210022"
       id="rect382"
       width="8.2543259"
       height="8.5830622"
       x="248.14447"
       y="3.5527137e-15"
       ry="0.073579259" /><rect
       style="fill:#2b0000;stroke-width:0.210022"
       id="rect384"
       width="8.2543259"
       height="8.5830622"
       x="256.3988"
       y="3.5527137e-15"
       ry="0.073579259" /><rect
       style="fill:#550000;stroke-width:0.210022"
       id="rect386"
       width="8.2543259"
       height="8.5830622"
       x="264.65314"
       y="3.5527137e-15"
       ry="0.073579259" /><rect
       style="fill:#800000;stroke-width:0.210022"
       id="rect388"
       width="8.2543259"
       height="8.5830622"
       x="272.90744"
       y="3.5527137e-15"
       ry="0.073579259" /><rect
       style="fill:#d40000;stroke-width:0.210022"
       id="rect390"
       width="8.2543259"
       height="8.5830622"
       x="281.16177"
       y="3.5527137e-15"
       ry="0.073579259" /><rect
       style="fill:#ff8080;stroke-width:0.210022"
       id="rect392"
       width="8.2543259"
       height="8.5830622"
       x="289.41611"
       y="3.5527137e-15"
       ry="0.073579259" /><rect
       style="fill:#241c1c;stroke-width:0.210022"
       id="rect394"
       width="8.2543259"
       height="8.5830622"
       x="297.67041"
       y="3.5527137e-15"
       ry="0.073579259" /><rect
       style="fill:#483737;stroke-width:0.210022"
       id="rect396"
       width="8.2543259"
       height="8.5830622"
       x="305.92474"
       y="3.5527137e-15"
       ry="0.073579259" /><rect
       style="fill:#6c5353;stroke-width:0.210022"
       id="rect398"
       width="8.2543259"
       height="8.5830622"
       x="314.17908"
       y="3.5527137e-15"
       ry="0.073579259" /><rect
       style="fill:#916f6f;stroke-width:0.210022"
       id="rect400"
       width="8.2543259"
       height="8.5830622"
       x="322.43341"
       y="3.5527137e-15"
       ry="0.073579259" /><rect
       style="fill:#ac9393;stroke-width:0.210022"
       id="rect402"
       width="8.2543259"
       height="8.5830622"
       x="330.68771"
       y="3.5527137e-15"
       ry="0.073579259" /><rect
       style="fill:#ffccaa;stroke-width:5.75293"
       id="rect404"
       width="13.229167"
       height="13.229167"
       x="21.166666"
       y="116.41666"
       ry="0" /><rect
       style="fill:#f9f9f9;stroke:none;stroke-width:0.732195"
       id="rect423"
       width="33.165958"
       height="7.3398695"
       x="10.583333"
       y="21.901773"
       ry="1.4043776" /><text
       xml:space="preserve"
       style="font-style:italic;font-weight:bold;font-size:3.82184px;line-height:1.25;font-family:'Caramel and Vanilla';-inkscape-font-specification:'Caramel and Vanilla Bold Italic';stroke-width:0.0955462"
       x="24.940023"
       y="26.584497"
       id="text479"><tspan
         sodipodi:role="line"
         id="tspan477"
         style="font-style:italic;font-variant:normal;font-weight:bold;font-stretch:normal;font-family:Airstrike;-inkscape-font-specification:'Airstrike Bold Italic';stroke-width:0.0955462"
         x="24.940023"
         y="26.584497">50</tspan></text><text
       xml:space="preserve"
       style="font-style:italic;font-weight:bold;font-size:4.14743px;line-height:1.25;font-family:'Caramel and Vanilla';-inkscape-font-specification:'Caramel and Vanilla Bold Italic';stroke-width:0.103686"
       x="9.8907127"
       y="51.520103"
       id="text533"><tspan
         sodipodi:role="line"
         id="tspan531"
         style="font-style:italic;font-variant:normal;font-weight:bold;font-stretch:normal;font-family:Airstrike;-inkscape-font-specification:'Airstrike Bold Italic';fill:#cccccc;stroke-width:0.103686"
         x="9.8907127"
         y="51.520103">Tool: Pencil</tspan></text><text
       xml:space="preserve"
       style="font-style:italic;font-weight:bold;font-size:3.25377px;line-height:1.25;font-family:'Caramel and Vanilla';-inkscape-font-specification:'Caramel and Vanilla Bold Italic';stroke-width:0.0813444"
       x="10.492228"
       y="19.199297"
       id="text537"><tspan
         sodipodi:role="line"
         id="tspan535"
         style="font-style:italic;font-variant:normal;font-weight:bold;font-stretch:normal;font-family:Airstrike;-inkscape-font-specification:'Airstrike Bold Italic';fill:#cccccc;stroke-width:0.0813444"
         x="10.492228"
         y="19.199297">Pixels: </tspan></text><rect
       style="fill:#f9f9f9;stroke:none;stroke-width:0.732195"
       id="rect539"
       width="33.165958"
       height="7.3398695"
       x="10.583333"
       y="37.825359"
       ry="0" /><text
       xml:space="preserve"
       style="font-style:italic;font-weight:bold;font-size:3.82184px;line-height:1.25;font-family:'Caramel and Vanilla';-inkscape-font-specification:'Caramel and Vanilla Bold Italic';stroke-width:0.0955462"
       x="22.337345"
       y="42.508083"
       id="text543"><tspan
         sodipodi:role="line"
         id="tspan541"
         style="font-style:italic;font-variant:normal;font-weight:bold;font-stretch:normal;font-family:Airstrike;-inkscape-font-specification:'Airstrike Bold Italic';stroke-width:0.0955462"
         x="22.337345"
         y="42.508083">16x16</tspan></text><text
       xml:space="preserve"
       style="font-style:italic;font-weight:bold;font-size:3.25377px;line-height:1.25;font-family:'Caramel and Vanilla';-inkscape-font-specification:'Caramel and Vanilla Bold Italic';stroke-width:0.0813444"
       x="10.508496"
       y="35.122883"
       id="text547"><tspan
         sodipodi:role="line"
         id="tspan545"
         style="font-style:italic;font-variant:normal;font-weight:bold;font-stretch:normal;font-family:Airstrike;-inkscape-font-specification:'Airstrike Bold Italic';fill:#cccccc;stroke-width:0.0813444"
         x="10.508496"
         y="35.122883">Image Size:</tspan></text></g></svg>
